<?xml version="1.0" standalone="no"?>
<!DOCTYPE svg PUBLIC "-//W3C//DTD SVG 20010904//EN"
 "http://www.w3.org/TR/2001/REC-SVG-20010904/DTD/svg10.dtd">
<svg version="1.0" xmlns="http://www.w3.org/2000/svg"
 width="379.000000pt" height="422.000000pt" viewBox="0 0 379.000000 422.000000"
 preserveAspectRatio="xMidYMid meet">
<metadata>
Created by potrace 1.16, written by Peter Selinger 2001-2019
</metadata>
<g transform="translate(0.000000,422.000000) scale(0.100000,-0.100000)"
fill="#84af75" stroke="none">
<path d="M625 4180 c-47 -11 -74 -28 -90 -60 -24 -46 -18 -66 27 -102 83 -67
171 -154 213 -213 81 -115 81 -122 -1 -44 -117 111 -220 190 -257 195 -25 4
-39 -1 -67 -24 -32 -27 -35 -34 -34 -81 0 -28 5 -61 11 -73 6 -13 25 -54 42
-91 22 -50 52 -91 114 -155 l83 -87 49 -137 c45 -127 50 -136 68 -126 13 7 16
13 8 17 -10 6 -22 37 -65 166 -31 91 -51 124 -121 195 -91 93 -135 173 -142
256 -7 75 6 104 46 104 35 0 91 -40 206 -148 82 -77 164 -142 180 -142 3 0 30
-18 60 -40 30 -22 93 -61 140 -87 54 -30 93 -58 105 -78 53 -85 251 -225 318
-225 91 0 198 132 162 200 -7 14 -7 31 2 58 10 32 15 38 35 34 27 -5 30 -24 6
-48 -13 -12 -14 -19 -5 -22 8 -2 9 -9 2 -23 -6 -11 -7 -19 -2 -19 6 0 12 9 15
20 4 15 14 20 36 20 27 0 31 -4 31 -25 0 -17 -7 -29 -22 -35 -17 -6 -19 -9 -6
-9 12 -1 16 -7 12 -18 -5 -16 -4 -17 8 -2 17 21 63 7 54 -16 -3 -8 -9 -23 -12
-32 -5 -17 -5 -17 9 0 14 16 15 16 19 -12 2 -17 0 -35 -6 -41 -7 -7 -6 -10 2
-10 7 0 12 -9 12 -21 0 -15 -5 -19 -15 -15 -17 6 -21 -9 -5 -19 6 -4 8 -16 4
-28 -9 -31 -14 -34 -25 -17 -8 11 -9 9 -4 -8 5 -16 1 -30 -11 -43 -22 -24 -28
-24 -43 4 -11 21 -11 21 -8 -6 3 -20 -1 -31 -16 -39 -16 -8 -22 -8 -25 1 -5
16 -22 14 -22 -3 0 -12 -20 -26 -36 -26 -3 0 -9 10 -14 23 l-9 22 0 -24 c-1
-20 -4 -22 -28 -15 -16 4 -45 7 -65 5 -21 -1 -38 3 -38 8 0 6 -6 8 -14 5 -21
-8 -134 33 -206 76 -36 21 -119 78 -185 126 -106 78 -313 200 -322 190 -4 -4
40 -31 127 -79 30 -17 118 -76 195 -131 139 -100 310 -196 351 -196 12 0 41
-7 65 -16 68 -24 205 -24 253 1 68 34 91 82 106 220 11 100 18 117 44 109 28
-9 28 -8 16 -38 -6 -17 -14 -24 -22 -20 -7 5 -9 2 -5 -8 3 -9 0 -21 -6 -27 -6
-6 -7 -11 -1 -11 5 0 15 5 21 11 11 11 53 4 53 -10 0 -4 -11 -14 -25 -21 -14
-7 -23 -15 -21 -18 3 -2 21 6 40 18 43 26 57 20 53 -25 -2 -30 -4 -32 -18 -19
-8 8 -22 14 -29 14 -9 0 -7 -5 6 -14 15 -12 16 -17 7 -27 -10 -10 -18 -10 -39
0 -27 12 -27 12 5 -25 19 -20 30 -43 27 -51 -3 -8 -6 -17 -6 -19 0 -2 -4 -4
-10 -4 -5 0 -10 9 -10 20 0 11 -4 20 -9 20 -5 0 -7 -9 -4 -20 3 -11 2 -27 -1
-36 -5 -13 -9 -14 -21 -4 -13 10 -15 9 -15 -9 0 -18 -4 -21 -21 -16 -14 5 -19
3 -15 -3 8 -14 -26 -24 -49 -16 -12 5 -16 4 -11 -4 8 -13 -37 -28 -53 -18 -5
3 -11 1 -13 -5 -3 -8 -38 -12 -105 -11 -118 0 -186 19 -327 89 -48 24 -90 42
-92 40 -7 -6 122 -75 201 -107 66 -26 99 -32 185 -37 120 -6 196 8 295 57 44
21 63 26 72 18 11 -9 11 -14 1 -26 -11 -13 -10 -14 9 -8 16 5 25 2 34 -15 10
-19 9 -25 -7 -36 -9 -7 -20 -11 -23 -8 -2 3 4 12 15 20 10 8 14 15 9 15 -6 0
-16 -5 -23 -12 -9 -9 -17 -6 -37 12 -14 13 -25 20 -25 15 0 -4 8 -14 18 -21
16 -12 16 -14 -1 -31 -14 -15 -21 -16 -37 -5 -11 7 -20 8 -20 2 0 -5 9 -14 20
-20 11 -6 18 -15 15 -20 -5 -8 -50 -31 -117 -62 -13 -5 -22 0 -33 20 l-15 27
2 -30 c3 -26 -1 -30 -24 -33 -16 -2 -28 1 -28 7 0 6 -4 11 -10 11 -5 0 -7 -7
-4 -15 5 -12 -2 -15 -30 -15 -24 0 -39 5 -43 16 -4 10 -8 12 -13 5 -4 -8 -15
-5 -32 9 -15 11 -29 20 -33 20 -3 0 -25 13 -48 29 -47 32 -143 80 -112 56 49
-38 203 -135 213 -135 7 0 12 -4 12 -10 0 -14 -79 -32 -115 -26 -38 7 -133 76
-195 141 -25 26 -92 88 -150 137 -58 50 -110 97 -117 105 -6 8 -17 12 -23 8
-8 -5 -8 -10 0 -20 7 -8 27 -47 47 -87 19 -40 55 -99 80 -131 44 -57 53 -96
10 -45 -12 14 -41 34 -63 43 -39 17 -60 42 -120 141 -7 11 -15 16 -19 12 -3
-3 10 -31 31 -62 20 -31 34 -59 30 -63 -23 -23 -87 55 -178 217 -11 19 -22 28
-32 24 -11 -4 1 -33 56 -127 70 -120 83 -135 163 -189 51 -35 58 -35 53 2 -6
43 23 36 38 -9 8 -26 17 -35 38 -37 29 -3 76 -29 76 -42 0 -5 -14 -21 -30 -37
-31 -30 -80 -105 -80 -124 0 -9 108 -201 120 -211 3 -3 18 -24 34 -47 16 -24
49 -56 74 -73 40 -27 54 -30 120 -30 l74 0 -20 -32 c-56 -91 -48 -173 23 -236
45 -39 114 -97 142 -117 14 -11 15 -18 4 -61 -7 -27 -24 -73 -38 -102 -21 -43
-24 -57 -15 -76 22 -49 -15 -48 -105 3 -37 22 -80 43 -96 46 -15 4 -30 11 -33
16 -10 16 -21 9 -34 -21 -19 -46 -34 -37 -26 16 3 25 2 43 -3 40 -5 -3 -65 17
-135 45 -183 73 -285 97 -432 98 -98 2 -123 -1 -134 -13 -21 -26 -3 -64 56
-119 95 -89 129 -160 184 -374 l23 -91 35 5 c45 8 40 -17 -6 -33 -22 -7 -29
-13 -22 -20 11 -11 27 -84 37 -163 8 -67 -15 -190 -43 -233 -13 -21 -27 -38
-31 -38 -4 0 -46 13 -93 29 -121 40 -200 62 -239 64 l-33 2 6 55 c8 79 12 102
24 132 22 55 45 185 44 250 0 53 3 70 19 84 10 9 19 27 19 40 0 24 -26 57 -39
49 -5 -2 -16 4 -26 15 -24 27 -61 25 -80 -3 -14 -21 -14 -32 1 -103 22 -106
16 -282 -12 -339 -23 -49 -60 -60 -69 -22 -9 33 28 164 66 239 21 41 0 123
-33 134 -23 7 -64 -12 -72 -32 -3 -8 1 -32 9 -53 21 -61 15 -95 -17 -99 -22
-3 -28 2 -37 31 -20 60 2 116 75 198 93 103 112 184 42 177 -34 -3 -39 -11
-53 -82 -4 -21 -9 -26 -17 -18 -8 8 -3 34 16 94 29 94 33 146 11 187 -18 36
-38 44 -71 29 -23 -11 -25 -16 -20 -52 19 -131 19 -146 2 -152 -10 -4 -22 -2
-29 5 -21 21 -65 13 -84 -15 -16 -26 -16 -27 6 -45 13 -11 34 -19 47 -19 17 0
27 -8 34 -25 10 -28 -1 -69 -44 -153 -30 -58 -33 -97 -11 -148 32 -77 29 -174
-6 -174 -16 0 -19 8 -19 43 0 44 -17 88 -36 94 -6 2 -21 -5 -34 -15 -30 -24
-30 -82 -2 -139 12 -23 24 -58 28 -80 5 -36 4 -39 -31 -58 -62 -32 -75 -58
-75 -141 0 -92 36 -211 85 -279 22 -32 35 -61 35 -81 0 -27 11 -40 77 -92 42
-34 107 -74 143 -89 36 -14 72 -33 81 -40 8 -7 24 -13 35 -13 10 0 32 -7 49
-16 16 -8 49 -18 73 -21 30 -4 46 -12 49 -23 7 -28 95 -63 160 -64 81 -1 247
50 273 84 3 4 39 24 80 45 41 20 100 50 131 66 31 16 62 29 69 29 13 0 61 36
60 45 0 3 14 18 32 32 65 52 202 190 275 277 41 49 100 109 130 135 31 25 93
81 139 124 74 71 84 78 104 67 28 -15 76 1 132 45 24 19 47 35 51 35 10 0 72
45 110 79 16 15 30 40 33 62 l6 36 37 -13 c76 -26 146 -28 219 -5 39 11 72 27
75 35 3 7 20 33 37 57 54 75 129 210 135 243 6 31 -1 46 -52 114 l-22 29 53 7
c102 12 208 65 227 113 5 15 12 101 13 193 2 91 7 175 11 187 14 43 -60 88
-195 120 -8 2 -47 4 -87 5 -72 1 -72 1 -55 22 9 12 45 46 79 76 34 30 62 60
62 67 1 6 7 18 14 25 6 7 13 18 14 23 1 6 12 33 24 62 l23 52 -57 83 c-31 46
-75 103 -97 128 -21 25 -47 59 -57 77 -9 17 -27 34 -40 38 -21 5 -78 -5 -115
-20 -15 -6 -17 -3 -13 21 19 103 22 129 19 153 -2 14 -5 50 -8 79 -5 68 -22
92 -93 132 -32 18 -79 48 -106 66 -26 19 -51 34 -56 34 -4 0 -28 15 -52 33
-24 19 -55 39 -68 46 -35 19 -86 5 -126 -35 -23 -23 -37 -30 -39 -22 -3 7 -10
38 -17 68 -16 71 -51 147 -86 186 -38 43 -122 96 -229 144 -49 23 -102 47
-119 54 -156 71 -313 121 -585 186 -115 27 -273 75 -317 97 -17 8 -33 15 -35
14 -2 -2 -14 2 -28 7 -44 16 -74 20 -105 12z m87 -46 c37 -9 65 -21 62 -25 -3
-5 5 -9 16 -9 14 0 24 -8 28 -22 6 -23 6 -23 11 -2 5 18 10 20 30 13 23 -9 24
-10 5 -25 -18 -14 -18 -15 4 -9 17 5 22 2 23 -12 1 -17 2 -17 6 0 3 13 12 17
31 15 30 -4 41 -24 15 -31 -14 -4 -13 -5 5 -6 13 -1 26 -10 32 -23 l9 -23 0
23 c1 30 30 41 47 17 18 -25 18 -33 -3 -38 -14 -4 -12 -5 5 -6 15 -1 22 -7 22
-21 0 -11 4 -20 10 -20 5 0 9 10 7 23 -2 18 3 22 27 22 16 0 31 -6 34 -12 2
-7 -4 -13 -13 -13 -12 0 -15 -5 -11 -17 4 -9 1 -20 -6 -25 -9 -6 -5 -8 12 -6
19 2 24 -1 22 -14 -2 -10 2 -18 8 -18 5 0 10 9 10 19 0 21 37 39 50 24 20 -20
15 -47 -10 -54 l-25 -7 27 -1 c19 -1 28 -7 31 -23 4 -20 4 -19 6 5 1 23 5 27
31 27 34 0 40 -19 14 -44 -14 -15 -14 -16 4 -16 15 0 18 -5 14 -25 -2 -15 0
-25 7 -25 6 0 11 11 11 25 0 18 7 26 25 31 32 8 39 1 41 -37 1 -22 -3 -29 -17
-29 -10 0 -21 -4 -24 -10 -4 -6 4 -9 17 -7 20 2 23 -2 20 -27 -3 -18 0 -26 7
-22 6 4 11 18 11 30 0 27 33 41 50 21 11 -13 4 -65 -9 -63 -21 2 -41 -3 -37
-11 3 -5 16 -7 27 -4 18 5 20 3 14 -16 -4 -12 -2 -21 4 -21 6 0 11 9 11 20 0
11 6 20 14 20 8 0 21 2 29 5 10 4 14 -2 15 -25 0 -23 -5 -33 -21 -40 -20 -8
-20 -9 7 -9 25 -1 28 -4 24 -26 -5 -25 7 -36 14 -13 3 7 13 5 32 -7 l28 -18
-24 -13 -23 -13 23 -1 c13 0 20 -4 17 -10 -9 -15 4 -12 21 5 24 23 54 19 54
-7 0 -13 -4 -29 -9 -37 -5 -7 -4 -28 2 -49 8 -26 8 -37 0 -39 -6 -2 -9 -13 -6
-24 3 -10 0 -26 -7 -34 -11 -13 -14 -13 -26 2 -13 16 -14 15 -8 -9 5 -23 2
-28 -21 -34 -18 -5 -30 -2 -36 7 -7 11 -9 10 -9 -3 0 -12 -8 -18 -25 -18 -13
0 -29 8 -34 18 -6 9 -11 11 -11 5 0 -17 -15 -16 -33 2 -8 8 -17 12 -20 9 -11
-12 -111 52 -162 103 -40 39 -67 80 -109 166 -90 184 -199 315 -346 418 -75
53 -123 74 -146 65 -13 -5 2 -25 69 -95 77 -80 128 -147 144 -188 15 -38 -21
-1 -75 77 -38 55 -87 110 -142 158 -87 74 -105 106 -79 139 11 13 42 30 59 32
3 1 35 -6 72 -15z m54 -163 c158 -104 275 -233 356 -394 21 -44 38 -81 36 -82
-6 -6 -119 55 -164 87 -28 20 -45 42 -52 66 -25 81 -130 233 -222 319 -58 54
-33 56 46 4z m918 -282 c32 -38 34 -84 4 -116 -42 -45 -129 -18 -143 45 -19
87 82 139 139 71z m620 -293 c6 -29 4 -66 -9 -135 -23 -126 -57 -210 -117
-288 -56 -73 -51 -86 6 -17 78 93 135 262 136 402 0 34 2 62 5 62 8 0 149 -93
169 -112 11 -10 32 -24 48 -30 15 -7 28 -17 28 -21 0 -5 4 -6 9 -2 5 3 22 -5
36 -18 33 -28 46 -88 38 -177 -17 -201 -72 -297 -218 -380 -60 -34 -108 -23
-135 30 -25 49 -61 74 -95 66 -18 -5 -25 -2 -25 9 0 8 -16 33 -36 55 -23 25
-33 44 -28 52 11 17 15 42 19 108 1 30 8 69 15 85 l13 30 6 -30 c5 -25 8 -27
14 -12 4 10 3 27 -3 37 -7 14 -2 25 26 54 19 19 28 33 19 30 -9 -4 -15 0 -15
9 0 8 6 17 14 20 15 6 40 67 26 67 -4 0 -13 -13 -19 -30 -5 -16 -14 -30 -20
-30 -14 0 -5 58 14 86 22 33 18 44 -5 14 -21 -26 -27 -12 -10 21 7 13 7 19 1
19 -12 0 -24 -38 -21 -66 4 -35 0 -64 -9 -64 -4 0 -11 28 -15 61 -7 69 -3 78
54 115 50 33 72 28 84 -20z m-1196 -373 c31 -27 100 -91 154 -143 90 -86 97
-96 81 -108 -18 -13 -45 -10 -95 9 -33 13 -135 145 -177 227 -17 34 -29 62
-25 62 3 0 31 -21 62 -47z m1666 -145 c-11 -38 -92 -144 -144 -191 -27 -24
-80 -60 -119 -81 -70 -36 -91 -37 -51 -1 11 10 22 26 25 36 4 11 19 26 35 34
40 21 50 18 21 -6 -13 -11 -22 -22 -19 -24 8 -8 58 35 58 50 0 8 10 20 23 26
26 14 103 89 91 89 -4 0 -16 -7 -26 -17 -12 -10 -18 -12 -18 -4 0 7 -5 9 -10
6 -6 -4 -8 -11 -4 -16 7 -13 -14 -39 -33 -39 -11 0 -12 4 -2 23 26 47 93 117
113 117 12 0 28 5 36 10 24 16 32 12 24 -12z m99 -86 c38 -53 84 -117 104
-141 29 -38 34 -50 28 -78 -15 -83 -120 -211 -242 -294 -40 -28 -54 -32 -112
-32 -75 -1 -105 12 -146 61 -28 33 -28 34 -12 68 24 49 22 65 -18 124 -20 29
-34 54 -33 55 2 0 34 17 72 36 37 19 96 59 130 91 62 56 146 169 146 195 0 27
17 10 83 -85z m-963 -1 c0 -4 18 -21 40 -36 22 -15 40 -30 40 -34 0 -7 -131
-76 -145 -76 -5 0 -19 25 -30 55 l-22 55 46 22 c50 23 71 28 71 14z m326 -46
c9 -23 -43 -104 -107 -167 -92 -90 -259 -158 -346 -142 -19 4 -37 13 -40 20
-7 20 43 101 75 121 15 9 38 27 52 39 32 29 155 87 250 118 89 29 109 31 116
11z m-860 -19 c15 -12 16 -17 7 -27 -10 -10 -18 -10 -37 -1 -14 6 -28 7 -31 3
-2 -5 5 -12 18 -17 18 -6 15 -8 -21 -11 -45 -4 -49 -23 -4 -23 15 0 33 -4 41
-9 12 -8 12 -12 -2 -26 -10 -9 -17 -19 -17 -23 0 -3 5 -1 12 6 18 18 31 14 25
-8 -3 -11 -1 -20 3 -20 12 0 23 37 15 50 -4 6 5 10 20 10 17 0 29 -7 35 -22
l9 -23 0 23 c1 25 11 28 30 10 11 -11 12 -9 7 8 -10 33 19 37 54 8 16 -14 30
-21 30 -15 0 6 -4 11 -10 11 -5 0 -10 4 -10 10 0 6 9 6 26 -1 15 -5 29 -8 31
-5 9 9 -39 28 -58 23 -10 -3 -22 -1 -25 4 -3 5 -4 9 -2 9 54 7 84 14 89 21 7
12 92 20 108 10 19 -12 -54 -90 -116 -123 -84 -46 -153 -60 -271 -56 -93 3
-111 6 -139 26 -46 33 -45 70 5 123 34 37 79 57 153 68 3 1 14 -5 25 -13z
m924 -48 c42 -79 87 -146 117 -175 22 -21 29 -49 24 -100 -3 -38 -69 -126
-131 -176 -33 -27 -90 -62 -127 -77 -58 -25 -80 -29 -150 -27 -72 2 -85 5
-108 27 -36 33 -197 280 -183 280 2 0 18 -4 36 -9 68 -20 240 42 334 121 57
47 138 153 138 179 0 34 17 20 50 -43z m-517 -60 c17 -38 16 -38 -12 -70 -57
-66 -64 -102 -31 -156 12 -19 18 -42 15 -51 -15 -48 -192 -97 -322 -89 -58 4
-64 6 -107 51 -25 25 -55 66 -66 90 -12 24 -29 53 -39 64 -11 11 -26 34 -35
52 l-17 32 33 -17 c20 -10 66 -19 118 -22 158 -9 337 58 397 149 29 44 31 43
66 -33z m-11 -386 c-53 -74 -195 -182 -239 -182 -20 0 -23 5 -23 35 0 46 25
105 44 105 8 0 21 3 30 6 9 3 16 1 16 -5 0 -6 -7 -11 -15 -11 -16 0 -39 -45
-32 -64 3 -6 8 1 12 17 4 15 13 27 21 27 8 0 11 -6 8 -15 -9 -23 1 -18 35 16
20 20 37 29 47 25 12 -4 15 -2 10 9 -3 9 0 15 9 15 18 0 20 20 3 21 -14 1 59
27 80 28 9 1 7 -7 -6 -27z m1273 -7 c30 -9 62 -24 71 -33 16 -15 14 -18 -19
-47 -97 -84 -381 -104 -496 -34 l-33 20 23 25 c35 37 50 44 168 70 118 26 194
25 286 -1z m-1203 -43 c21 -32 51 -71 68 -87 30 -29 35 -30 121 -30 49 0 89
-3 89 -6 0 -15 -63 -99 -79 -104 -9 -3 -41 -1 -71 5 -100 19 -234 -21 -242
-71 -2 -12 -8 -24 -14 -26 -12 -4 -194 143 -194 156 0 5 19 16 43 25 54 21
164 105 202 155 17 22 32 40 35 40 3 1 22 -25 42 -57z m649 22 c16 -20 3 -44
-34 -62 -15 -7 -27 -20 -27 -29 0 -11 13 -5 44 21 l44 36 11 -32 c6 -17 11
-54 11 -82 0 -28 9 -83 20 -121 28 -97 26 -118 -11 -149 -22 -19 -42 -26 -73
-26 -48 0 -80 -19 -101 -61 -12 -22 -22 -29 -45 -29 -34 0 -37 13 -16 71 15
43 13 45 -64 109 -63 52 -133 90 -167 90 l-23 0 27 38 c26 36 28 37 92 38 84
1 221 44 221 70 0 19 -2 18 -65 -15 -51 -27 -158 -51 -171 -38 -7 7 37 67 49
67 4 0 6 -10 2 -22 l-6 -23 17 23 c20 26 36 29 27 5 -5 -14 1 -12 23 7 16 14
34 30 40 37 6 7 26 19 45 27 20 9 27 15 16 16 -24 0 -11 20 13 20 10 0 22 5
25 10 4 7 -3 9 -22 5 -21 -5 -24 -4 -13 4 23 17 96 13 111 -5z m636 -226 c-4
-95 -10 -186 -13 -201 -8 -35 -74 -70 -171 -93 -82 -19 -140 -12 -236 27 -38
16 -76 29 -84 29 -10 0 -7 9 11 31 32 38 32 52 1 118 -52 108 -73 246 -31 204
16 -16 95 -34 176 -39 122 -9 290 32 329 80 8 9 16 16 19 16 3 0 2 -78 -1
-172z m-1095 -44 c98 -16 168 -49 196 -91 13 -21 12 -23 -14 -34 -16 -6 -68
-13 -115 -16 -70 -5 -99 -2 -155 15 -70 22 -175 78 -181 98 -2 6 16 16 39 24
24 7 48 14 53 15 25 8 93 4 177 -11z m-177 -107 c118 -58 218 -69 348 -38 45
11 45 13 15 -115 l-22 -96 -28 6 c-16 3 -47 -1 -69 -8 -22 -8 -49 -12 -59 -9
-31 8 -61 -4 -119 -47 -38 -29 -60 -39 -75 -35 -36 11 -145 65 -161 81 -21 21
-19 77 4 123 11 20 27 69 37 107 9 38 18 75 21 83 3 11 6 11 21 -2 9 -8 49
-31 87 -50z m-1499 -60 c13 -61 12 -77 -12 -144 -24 -70 -31 -137 -15 -147 16
-10 41 5 56 34 8 15 12 30 9 32 -9 9 16 59 26 53 29 -18 -1 -87 -70 -161 -62
-65 -82 -107 -82 -165 0 -53 27 -112 55 -117 9 -2 28 8 42 22 28 28 34 86 13
143 -15 40 0 65 26 44 37 -31 30 -104 -25 -243 -23 -56 -27 -131 -9 -153 20
-24 56 -18 78 13 37 51 63 160 63 257 0 50 -5 106 -11 125 -20 69 -23 120 -7
120 26 0 40 -26 27 -50 -9 -17 -8 -26 5 -46 22 -34 19 -176 -6 -269 -40 -151
-51 -220 -47 -286 9 -117 85 -247 191 -325 33 -24 52 -44 44 -44 -72 0 -274
69 -377 128 -61 36 -147 110 -171 149 -19 30 -19 34 -4 62 29 56 20 156 -22
247 -26 58 -27 99 -3 99 11 0 16 -15 20 -58 4 -42 11 -63 25 -73 24 -18 30
-18 49 1 33 34 40 89 21 162 -31 117 -30 131 9 213 20 41 36 89 36 107 0 35
-22 63 -50 63 -45 0 -63 23 -39 47 9 9 21 6 50 -10 44 -26 56 -19 69 38 6 26
4 49 -6 77 -17 50 -18 85 -1 91 22 7 36 -4 43 -36z m557 -7 c134 -16 430 -130
404 -157 -2 -1 -55 18 -118 43 -157 63 -283 94 -404 99 -55 2 -103 4 -107 5
-5 0 -8 5 -8 10 0 13 119 13 233 0z m1747 -47 c97 -33 149 -64 198 -117 55
-60 61 -84 29 -112 -100 -85 -338 -20 -434 120 -38 56 -45 117 -15 136 26 16
135 3 222 -27z m-1611 -28 c90 -29 271 -102 286 -116 5 -5 17 -9 26 -9 9 0 51
-16 93 -36 41 -20 81 -34 88 -31 9 3 6 7 -7 12 -64 22 -145 67 -145 80 0 12
11 10 52 -11 29 -15 70 -38 91 -51 33 -21 36 -26 23 -38 -16 -17 -21 -16 -131
31 -121 51 -306 121 -352 133 -23 6 -45 16 -48 22 -4 5 -16 7 -27 3 -19 -6
-37 8 -38 29 0 10 0 10 89 -18z m1431 -135 c110 -107 282 -153 379 -101 12 7
25 10 28 7 7 -6 -30 -64 -91 -146 -23 -30 -45 -63 -48 -72 -23 -58 -174 -74
-278 -28 -116 50 -210 138 -210 195 0 34 28 99 104 245 l29 54 20 -54 c13 -35
37 -70 67 -100z m-1558 103 c12 -11 21 -12 36 -4 16 8 25 6 45 -9 27 -22 47
-26 47 -10 0 16 39 3 271 -88 162 -64 214 -88 206 -97 -14 -15 -57 -7 -57 10
0 8 -24 21 -52 31 -29 9 -90 32 -135 50 -46 18 -107 38 -135 43 -29 6 -106 22
-172 36 -65 14 -134 25 -152 25 -19 0 -34 2 -34 4 0 2 -3 12 -6 21 -6 14 1 16
57 10 35 -4 72 -13 81 -22z m110 -64 c84 -17 181 -42 217 -56 36 -13 98 -36
138 -50 40 -15 70 -30 68 -34 -3 -4 11 -13 31 -19 36 -12 38 -12 69 25 19 24
36 35 43 31 9 -5 7 -14 -8 -33 -11 -14 -20 -31 -20 -37 0 -6 6 -3 13 6 8 10
18 14 27 8 19 -12 5 -41 -17 -35 -10 3 1 -4 25 -15 34 -17 42 -26 42 -49 0
-15 9 -60 19 -100 11 -41 17 -79 15 -86 -3 -7 2 -15 10 -18 9 -4 16 -11 16
-18 0 -6 -7 -9 -15 -5 -8 3 -15 2 -15 -3 0 -5 9 -11 20 -14 22 -6 29 -47 8
-47 -33 0 -57 14 -62 34 -2 11 -4 -3 -3 -32 2 -43 -1 -52 -15 -52 -9 0 -20 5
-23 10 -4 6 -10 8 -15 5 -14 -9 -41 7 -36 21 3 7 1 16 -4 19 -6 4 -10 -17 -10
-49 0 -57 -4 -63 -29 -47 -14 9 -11 84 5 124 6 16 4 17 -12 8 -10 -5 -62 -22
-114 -37 -52 -15 -169 -53 -259 -86 -90 -32 -166 -57 -168 -54 -16 16 15 36
93 60 49 16 123 39 164 52 155 49 211 64 235 64 14 0 25 5 25 11 0 6 -8 8 -17
5 -10 -2 -52 -12 -93 -22 -41 -10 -142 -40 -224 -66 -82 -26 -155 -48 -162
-48 -8 0 -14 9 -14 19 0 13 11 23 33 30 62 20 232 63 257 66 14 1 32 5 40 8 8
4 35 8 59 9 44 3 73 28 32 28 -44 0 -19 18 34 25 30 3 57 11 61 16 3 6 -5 7
-23 4 -15 -4 -39 -9 -53 -11 -32 -7 -363 -64 -411 -71 -27 -4 -38 -1 -42 11
-7 17 20 36 41 29 7 -3 20 -1 30 3 9 4 24 9 32 10 8 1 56 9 105 18 50 9 124
19 165 22 41 4 84 8 95 9 11 2 28 4 38 4 10 1 16 5 13 9 -6 10 -151 -3 -292
-27 -60 -10 -110 -18 -111 -17 -1 0 4 8 10 17 9 12 36 18 97 22 126 8 309 31
279 35 -14 2 -93 -4 -174 -12 -192 -21 -180 -21 -180 13 l0 29 141 -5 c97 -4
144 -2 148 6 5 8 -62 10 -239 8 -191 -1 -245 1 -245 11 0 17 4 27 10 25 19 -6
584 -13 578 -8 -4 4 3 16 15 26 40 32 13 52 -99 72 -54 10 -121 26 -149 34
-27 9 -72 18 -100 19 -97 6 -161 11 -229 19 -46 5 -67 4 -63 -2 4 -6 46 -14
94 -18 50 -4 100 -14 115 -23 21 -12 30 -13 42 -3 12 10 20 9 44 -3 17 -9 57
-15 98 -16 92 -1 146 -11 136 -27 -6 -9 -31 -9 -112 2 -58 8 -174 19 -258 26
-164 13 -162 12 -176 72 l-7 28 63 -6 c179 -17 259 -28 313 -40 180 -42 245
-55 266 -54 13 0 -21 12 -76 25 -55 13 -111 30 -125 38 -15 9 -31 11 -39 7 -7
-5 -39 -3 -70 4 -31 7 -85 16 -121 19 -36 4 -81 9 -100 12 -19 3 -52 5 -72 4
-34 -1 -58 18 -58 46 0 23 406 -49 505 -90 21 -9 47 -16 59 -16 36 1 -113 49
-234 77 -133 29 -271 52 -317 53 -18 0 -33 2 -33 4 0 2 -3 11 -6 20 -9 24 44
21 218 -15z m1068 -71 c-35 -108 -2 -238 83 -326 52 -54 105 -82 153 -82 l37
0 -23 -25 c-13 -14 -27 -25 -31 -25 -5 0 -39 -20 -76 -44 -72 -46 -108 -62
-133 -57 -23 3 -130 60 -169 89 -37 27 -91 131 -91 175 0 22 -4 27 -25 27 -27
0 -27 -1 -25 -77 1 -29 -1 -53 -5 -53 -14 0 -55 110 -64 171 -8 60 -5 159 6
159 3 0 17 -9 31 -20 15 -12 38 -29 52 -40 l25 -19 -22 -40 c-29 -50 -29 -51
3 -51 20 0 24 4 19 19 -12 38 56 171 87 171 4 0 47 23 95 50 48 28 88 50 89
50 1 0 -7 -24 -16 -52z m141 11 c21 -21 29 -35 24 -47 -4 -9 -10 -25 -12 -35
-5 -17 -6 -17 -19 0 -12 16 -13 14 -7 -16 8 -43 -12 -35 -22 8 -3 16 -13 36
-22 43 -15 12 -15 11 -4 -11 11 -19 11 -25 0 -32 -11 -6 -10 -9 3 -14 26 -10
34 -66 12 -82 -17 -12 -16 -13 5 -13 22 0 23 -3 18 -40 -3 -22 -1 -43 4 -46 5
-3 9 7 9 21 0 44 20 17 21 -28 1 -23 3 -34 6 -24 7 26 23 21 23 -8 0 -14 5
-25 11 -25 7 0 8 11 4 31 -5 22 -4 29 4 25 6 -4 11 -16 11 -27 0 -10 6 -19 13
-19 15 -1 67 -46 67 -59 0 -17 -98 -4 -134 18 -48 30 -104 95 -129 150 -24 52
-29 186 -9 234 10 23 17 27 51 27 31 0 47 -7 72 -31z m-522 -81 c-6 -11 -11
-48 -11 -82 1 -119 34 -207 117 -310 39 -47 45 -59 34 -72 -11 -13 -17 -10
-46 18 -45 43 -76 98 -102 176 -44 137 -50 252 -15 287 21 21 37 9 23 -17z
m-214 -397 c-6 -5 -59 -28 -120 -49 -60 -22 -145 -56 -188 -76 -43 -20 -83
-33 -89 -30 -6 4 -16 1 -22 -7 -6 -8 -39 -24 -74 -36 l-63 -21 7 21 c9 29 -2
24 123 67 60 22 118 44 128 49 10 5 65 24 123 42 58 17 116 35 130 39 36 12
56 12 45 1z m-5 -35 c0 -20 -235 -118 -288 -120 -36 -2 -48 -8 -68 -34 -19
-24 -31 -31 -48 -26 -14 3 -27 -1 -35 -10 -12 -14 -110 -56 -131 -56 -6 0 -5
10 1 23 8 17 30 30 82 47 40 13 76 23 81 22 5 -2 16 4 25 12 16 14 296 129
379 155 1 1 2 -5 2 -13z m-7 -83 l6 -51 -122 -62 c-67 -35 -128 -67 -135 -73
-7 -5 -31 -11 -53 -12 l-40 -2 43 25 c24 13 98 52 164 86 112 56 121 63 113
83 l-8 22 -53 -23 c-29 -13 -106 -49 -170 -80 -64 -31 -119 -56 -122 -56 -2 0
-3 7 -2 16 3 21 23 32 50 27 16 -3 31 3 47 20 13 14 49 35 79 47 30 12 79 33
108 46 29 14 56 22 61 19 5 -2 12 2 15 11 9 24 12 16 19 -43z m-1375 -128 c12
-137 275 -305 559 -356 65 -11 121 -23 125 -25 4 -2 56 -5 116 -5 90 -1 117 2
155 19 40 18 47 25 47 48 0 58 -174 190 -318 241 -37 13 -76 27 -87 32 -19 8
-123 33 -192 46 -20 4 -33 13 -33 22 0 18 25 14 150 -23 77 -23 112 -35 234
-81 101 -37 257 -159 283 -222 13 -30 12 -35 -4 -53 -49 -54 -146 -76 -300
-67 -121 7 -282 43 -400 88 -227 88 -440 293 -376 363 24 26 38 17 41 -27z
m510 -41 c29 -8 57 -12 62 -9 5 3 13 -3 19 -12 6 -10 11 -15 11 -11 0 10 120
-35 182 -69 155 -84 117 -232 -57 -224 -54 2 -68 8 -143 58 -94 63 -157 138
-191 229 -12 30 -21 57 -21 60 0 8 73 -4 138 -22z m939 10 c12 -3 25 -15 29
-26 4 -14 9 -17 14 -9 9 16 60 4 83 -21 25 -26 2 -33 -46 -13 -28 12 -37 12
-37 3 0 -29 -341 -330 -356 -315 -3 3 21 27 52 53 105 89 314 286 269 253 -11
-8 -65 -54 -121 -104 -265 -237 -299 -264 -315 -248 -16 16 -6 27 49 59 52 30
88 60 260 213 140 124 130 115 115 110 -6 -2 -75 -60 -153 -129 -118 -104
-231 -193 -236 -187 -1 1 0 16 3 33 3 22 14 35 38 48 58 32 337 250 344 270 3
8 1 8 -10 0 -191 -153 -254 -202 -304 -235 -55 -37 -60 -39 -72 -23 -12 16 -7
22 46 53 86 53 137 88 224 158 81 65 86 67 124 57z m-1457 -91 c68 -87 255
-205 397 -252 185 -60 455 -88 545 -56 78 27 87 20 41 -27 l-42 -43 20 -24
c36 -44 14 -59 -25 -16 l-23 25 -38 -30 c-76 -61 -311 -104 -376 -69 -14 7
-24 7 -33 0 -19 -16 -100 -31 -110 -21 -13 13 12 40 37 40 21 0 16 12 -6 16
-68 11 -181 74 -262 146 -75 65 -159 213 -165 290 -5 56 7 63 40 21z m1540 1
c0 -13 -140 -144 -154 -144 -9 0 -22 -12 -29 -27 -14 -33 -50 -65 -175 -159
-99 -75 -183 -129 -217 -139 -19 -6 -19 -6 -1 6 10 6 37 30 60 53 23 22 84 71
136 108 52 37 151 121 220 187 69 66 133 120 143 120 9 1 17 -2 17 -5z m30 -9
c0 -3 -21 -29 -47 -58 -27 -30 -72 -82 -101 -115 -29 -34 -60 -62 -68 -62 -8
0 -23 -14 -33 -31 -46 -76 -360 -261 -481 -284 l-35 -6 45 26 c25 15 70 37
102 50 72 29 172 94 295 192 54 42 100 80 103 84 3 3 15 9 27 13 12 4 25 17
29 28 3 12 39 55 79 95 65 66 85 82 85 68z m-234 -317 c4 -7 -2 -18 -17 -27
-13 -9 -38 -28 -55 -43 -34 -30 -262 -149 -334 -175 -62 -21 -196 -53 -223
-52 -35 1 36 29 118 46 85 18 293 115 372 175 133 99 127 96 139 76z"/>
<path d="M2077 2706 c-9 -7 -17 -19 -17 -25 0 -7 -4 -9 -10 -6 -5 3 -15 -3
-22 -15 -13 -21 -38 -28 -38 -10 0 6 -4 10 -10 10 -5 0 -10 -6 -10 -13 0 -20
-35 -48 -51 -42 -8 3 -23 -1 -34 -10 -19 -15 -19 -15 10 -10 29 6 28 5 -8 -15
-22 -12 -37 -24 -34 -27 3 -2 15 1 27 7 28 15 40 4 14 -14 -10 -8 -30 -24 -44
-36 l-25 -22 40 23 c22 12 47 28 56 36 20 17 43 17 33 1 -5 -7 5 -3 21 10 28
22 49 22 27 0 -20 -20 -13 -32 8 -13 11 10 20 25 20 34 0 20 34 43 53 35 8 -3
19 2 26 10 10 12 9 14 -8 9 -12 -3 -21 -1 -21 5 0 5 21 15 47 21 l46 12 -28
15 c-16 8 -37 11 -49 8 -19 -6 -19 -5 -7 10 18 21 11 28 -12 12z"/>
<path d="M2903 2219 c-6 -6 -27 -11 -47 -12 -20 -1 -36 -5 -36 -9 0 -5 -25 -5
-55 -2 -40 5 -55 3 -55 -5 0 -8 8 -10 20 -6 25 8 62 -3 55 -16 -4 -5 -27 -10
-53 -10 -42 -1 -44 -2 -17 -9 28 -7 29 -8 8 -15 -13 -4 -20 -11 -18 -16 7 -10
55 10 55 23 0 4 21 8 48 8 l47 -1 -30 -14 -30 -13 38 -1 c20 -1 37 -6 37 -12
0 -5 -4 -8 -9 -4 -5 3 -13 0 -16 -6 -5 -7 1 -9 16 -7 18 2 23 9 22 26 -3 22
-2 22 27 7 37 -19 51 -19 25 1 -17 13 -18 16 -5 25 8 5 27 8 43 6 15 -2 27 0
27 5 0 4 -12 8 -27 8 -19 0 -24 3 -15 9 7 4 24 6 38 3 15 -3 24 0 24 8 0 7
-14 11 -37 9 -52 -3 -63 -1 -63 11 0 6 11 8 25 4 15 -4 25 -2 25 5 0 14 -53
14 -67 0z"/>
<path d="M230 971 c-15 -30 -12 -125 6 -171 11 -28 24 -42 41 -46 33 -9 45 11
38 61 -4 22 -10 66 -15 97 -5 32 -11 62 -15 68 -10 17 -44 11 -55 -9z"/>
<path d="M2535 1695 c22 -18 26 -24 13 -25 -9 0 -20 5 -23 10 -3 6 -10 10 -16
10 -5 0 -4 -8 2 -19 7 -10 17 -18 23 -18 31 1 46 -4 46 -14 0 -6 -15 -9 -34
-8 -19 2 -38 0 -42 -4 -4 -4 9 -7 29 -7 38 0 51 -15 20 -23 -14 -4 -13 -5 4
-6 12 0 25 4 28 9 12 19 36 -10 29 -34 -6 -18 -5 -19 8 -8 13 10 23 10 54 -5
22 -9 51 -28 67 -42 15 -14 27 -20 27 -13 0 6 -10 18 -22 26 -12 9 -19 19 -15
23 4 3 21 -3 37 -15 35 -26 48 -28 29 -5 -13 15 -11 16 14 9 15 -3 27 -2 27 3
0 13 -34 23 -53 15 -9 -3 -21 -3 -27 1 -18 11 8 34 33 29 20 -4 19 -3 -3 8
-35 17 -36 18 -20 28 11 7 1 10 -32 10 -52 0 -74 16 -31 22 25 4 26 5 9 13
-11 5 -31 4 -48 -3 -25 -9 -30 -8 -45 14 -18 28 -30 25 -14 -4 19 -36 -2 -32
-40 8 -22 22 -45 40 -51 40 -7 0 1 -11 17 -25z"/>
<path d="M3133 2885 c-26 -19 -25 -40 12 -155 50 -155 80 -527 55 -676 -24
-137 15 -148 178 -47 38 24 52 43 52 74 0 14 9 38 20 52 11 14 20 29 20 34 0
4 17 8 37 8 32 0 39 4 41 22 2 16 -4 26 -22 34 -29 14 -26 23 27 87 19 23 38
57 41 76 5 27 17 43 51 66 48 33 72 63 100 128 24 55 14 86 -40 124 -53 37
-254 136 -280 137 -11 1 -29 1 -39 2 -10 0 -31 6 -45 13 -14 8 -53 17 -86 20
-33 4 -69 10 -80 12 -11 3 -30 -2 -42 -11z m56 -61 c11 -14 34 -62 52 -107 58
-150 74 -449 35 -636 -19 -84 -22 -91 -43 -91 -11 0 -14 6 -9 25 12 49 7 352
-9 504 -11 107 -23 173 -40 218 -38 100 -31 144 14 87z"/>
<path d="M834 2707 c-23 -12 -61 -36 -85 -54 -122 -90 -239 -161 -239 -146 0
3 -6 1 -12 -4 -7 -6 -29 -13 -49 -17 -20 -3 -44 -15 -54 -26 -23 -25 -15 -43
50 -124 l48 -59 26 32 c45 55 69 35 31 -26 l-20 -33 53 -30 c28 -17 70 -35 92
-42 22 -6 45 -15 51 -19 12 -9 158 -21 247 -19 44 0 70 7 115 31 120 65 130
100 54 184 -27 29 -65 88 -86 131 -42 86 -120 212 -144 232 -21 17 -30 15 -78
-11z m82 -46 c16 -17 60 -87 98 -158 38 -70 85 -152 104 -181 19 -29 31 -56
28 -60 -4 -4 -25 3 -46 16 l-39 22 -22 -60 c-12 -33 -26 -63 -31 -66 -23 -14
-18 9 15 71 l35 66 -23 27 c-80 95 -164 259 -165 320 0 40 10 40 46 3z m33
-351 c-23 -28 -44 -50 -46 -50 -12 0 3 23 37 56 22 22 40 43 40 48 0 15 -39
-24 -103 -104 -33 -41 -64 -79 -68 -84 -4 -4 -15 -4 -25 2 -15 8 -5 23 79 109
54 55 97 103 97 107 0 4 -47 -41 -105 -99 -102 -103 -105 -106 -137 -97 l-33
8 80 76 c44 42 103 93 130 115 l50 40 23 -39 23 -38 -42 -50z"/>
<path d="M2692 1127 c-65 -18 -77 -50 -46 -127 l17 -41 21 20 c12 12 25 21 29
21 14 0 7 -27 -11 -44 -18 -16 -18 -18 17 -58 87 -101 137 -143 187 -155 197
-50 456 -85 486 -67 7 5 22 10 33 12 57 8 57 62 0 102 -87 61 -104 76 -105 87
0 6 -11 20 -24 30 -13 10 -49 52 -79 93 -34 46 -72 85 -97 99 -22 12 -40 20
-40 16 0 -3 -9 -1 -20 5 -30 16 -315 21 -368 7z m245 -163 c27 -82 39 -132 33
-138 -6 -6 -13 1 -20 20 -6 16 -15 40 -20 54 -5 14 -17 52 -25 85 -15 58 -15
58 -10 13 2 -26 16 -79 29 -117 23 -66 24 -70 6 -61 -19 10 -47 90 -48 135 0
11 -5 36 -10 55 l-10 35 -1 -40 c0 -22 6 -65 14 -95 15 -56 13 -72 -7 -52 -23
23 -39 222 -18 222 6 0 10 7 10 15 0 12 4 14 17 6 10 -5 35 -61 60 -137z m3
76 c28 -76 38 -72 11 4 -11 31 -15 56 -10 56 5 0 9 -5 9 -11 0 -5 4 -8 10 -4
5 3 18 -11 29 -32 11 -21 20 -31 21 -23 0 9 -7 26 -16 38 -9 13 -13 26 -10 29
8 9 7 11 66 -102 29 -55 72 -128 96 -162 48 -68 50 -73 30 -73 -14 0 -75 93
-131 198 -16 28 -30 50 -32 48 -6 -5 41 -98 81 -161 50 -79 50 -78 36 -73 -14
4 -73 106 -130 223 -21 44 -39 76 -39 71 -1 -5 18 -50 42 -100 24 -50 42 -97
39 -104 -2 -7 10 -25 27 -41 17 -16 31 -35 31 -42 0 -8 -7 -3 -16 9 -8 12 -21
22 -27 22 -7 0 -28 36 -47 79 -19 44 -36 76 -38 72 -2 -5 8 -34 22 -65 18 -41
21 -56 12 -56 -9 0 -31 51 -58 130 -44 130 -50 183 -8 70z m134 28 c14 -20 15
-21 9 -3 -5 18 -3 17 21 -5 15 -14 31 -23 34 -21 7 5 82 -88 82 -101 0 -22
-22 -2 -54 50 -19 31 -36 52 -36 46 0 -16 77 -130 143 -212 33 -40 56 -76 53
-79 -11 -12 -94 87 -153 181 -62 100 -85 130 -58 76 30 -60 106 -173 138 -207
31 -33 32 -58 1 -33 -16 14 -144 204 -144 215 0 4 -13 25 -28 48 -41 60 -44
67 -34 67 5 0 17 -10 26 -22z m-246 -186 c61 -62 75 -71 142 -91 41 -13 115
-29 165 -37 49 -8 113 -18 142 -22 28 -5 79 -8 112 -8 34 1 61 -2 61 -6 0 -13
-70 -20 -128 -14 -31 4 -79 9 -107 12 -103 11 -276 54 -322 79 -67 36 -155
119 -147 139 3 9 8 16 11 16 2 0 34 -31 71 -68z"/>
</g>
</svg>
